inDegrees=yes
name=ik_lifting_orientations
DataType=double
version=3
OpenSimVersion=4.5-2024-01-10-34fd6af
endheader
time	pelvis_tilt	pelvis_list	pelvis_rotation	pelvis_tx	pelvis_ty	pelvis_tz	hip_flexion_r	hip_adduction_r	hip_rotation_r	knee_angle_r	knee_angle_r_beta	ankle_angle_r	subtalar_angle_r	mtp_angle_r	hip_flexion_l	hip_adduction_l	hip_rotation_l	knee_angle_l	knee_angle_l_beta	ankle_angle_l	subtalar_angle_l	mtp_angle_l	lumbar_extension	lumbar_bending	lumbar_rotation	arm_flex_r	arm_add_r	arm_rot_r	elbow_flex_r	pro_sup_r	wrist_flex_r	wrist_dev_r	arm_flex_l	arm_add_l	arm_rot_l	elbow_flex_l	pro_sup_l	wrist_flex_l	wrist_dev_l
1.71	-1.056911423853124	-2.039950972768623	-89.67365571066343	0	0.9399999998679526	0	45.00740562459477	-10.13537617725193	0	60.01154230321196	1.04739900239091	-5.032008435166638	0	0	45.00740562459477	-10.13537617725193	0	60.01154230321196	1.04739900239091	-5.032008435166638	0	0	-22.91705366801591	3.11818688177326	-1.517124703103382	24.16211329557103	-38.6860385685242	19.50405296316249	89.16170758836482	1.575559843055564	0	0	0	-11.55226745924932	0	88.45646388229788	1.575559843055564	0	0
1.72	-0.9377543547912721	-1.216136001588636	-91.83253754085653	0	0.9399999998679526	0	45.00736097464546	-10.13342731341071	0	60.01147373533192	1.047397805655642	-5.031457455905527	0	0	45.00736097464546	-10.13342731341071	0	60.01147373533192	1.047397805655642	-5.031457455905527	0	0	-20.87731340835677	2.11217965031363	0.457586159084746	24.78068630804978	-39.07278375015633	20.49813083239339	88.93579893154752	1.568270772388595	0	0	0	-11.5649511365114	0	88.4636039544755	1.568270772388595	0	0
1.73	-0.8023978653389501	-0.5470422536152122	-91.71331994910742	0	0.9399999998679526	0	45.00733735975554	-10.13229790854904	0	60.01143915592276	1.047397202131099	-5.031130241835839	0	0	45.00733735975554	-10.13229790854904	0	60.01143915592276	1.047397202131099	-5.031130241835839	0	0	-18.92476059032935	1.881264994167963	0.5089511063017395	26.01745551607705	-39.24390800026549	21.75917259257469	88.14467382698675	1.564490312857238	0	0	0	-11.57143549502249	0	88.46730713249846	1.564490312857238	0	0
1.74	-0.7000522500952128	0.02105163376980383	-91.52861146419814	0	0.9399999998679526	0	45.00730068181216	-10.13065221113476	0	60.01138367500423	1.047396233806398	-5.030661326491829	0	0	45.00730068181216	-10.13065221113476	0	60.01138367500423	1.047396233806398	-5.030661326491829	0	0	-17.09329790182857	1.753592636969093	0.3195440497549341	27.27862402615265	-39.29125749229375	22.87563054214679	90.38062168804335	1.558535562183216	0	0	0	-11.58175627479361	0	88.47314015836328	1.558535562183216	0	0
1.75	-0.6218748672750339	0.5211852114517324	-91.45931424935365	0	0.9399999998679526	0	45.00728059090084	-10.12975195098704	0	60.01135345765285	1.047395706414126	-5.03040523617938	0	0	45.00728059090084	-10.12975195098704	0	60.01135345765285	1.047395706414126	-5.03040523617938	0	0	-15.22861559677756	1.544920699986794	0.4998609901716451	28.07977577633752	-39.13246996203807	23.67959276371028	91.66220955930348	1.555275759703565	0	0	0	-11.58740254722838	0	88.47633332502669	1.555275759703565	0	0
1.76	-0.5151859532322922	1.000431185519646	-91.34846508843118	0	0.9399999998679526	0	45.00725976784103	-10.12880533364694	0	60.01132243260769	1.047395164924937	-5.030135038238328	0	0	45.00725976784103	-10.12880533364694	0	60.01132243260769	1.047395164924937	-5.030135038238328	0	0	-13.29692670702681	1.336565459013701	0.6266406229566956	28.93015315358181	-38.92715122602373	24.58603556639753	92.81789132819354	1.55190853151916	0	0	0	-11.59322010873737	0	88.47963172085996	1.55190853151916	0	0
1.77	-0.4187510808602122	1.558539956224203	-91.21792030868681	0	0.9399999998679526	0	45.00723690962572	-10.1277755493582	0	60.01128830037192	1.047394569205042	-5.029841947748408	0	0	45.00723690962572	-10.1277755493582	0	60.01128830037192	1.047394569205042	-5.029841947748408	0	0	-11.40115486232332	1.135849212799639	0.6866200200823196	30.30891519808807	-38.83668992817819	25.69450217965029	95.03691628605985	1.548206122234239	0	0	0	-11.59962413067266	0	88.48325844637858	1.548206122234239	0	0
1.78	-0.3220446859728651	2.098343322095817	-90.92307055897069	0	0.9399999998679526	0	45.00721419076485	-10.12677039409036	0	60.0112541484451	1.047393973141473	-5.029557370848542	0	0	45.00721419076485	-10.12677039409036	0	60.0112541484451	1.047393973141473	-5.029557370848542	0	0	-9.493829814211308	0.9504249381631135	0.583342683306935	31.62364674913301	-38.76276881721941	26.87201225308288	97.38759680457895	1.544513006747936	0	0	0	-11.60602867012694	0	88.48687606874024	1.544513006747936	0	0
1.79	-0.2224911772050321	2.537914816408298	-90.60824045245496	0	0.9399999998679526	0	45.00718966902846	-10.12567670841195	0	60.01121752468796	1.047393333936326	-5.029247208041732	0	0	45.00718966902846	-10.12567670841195	0	60.01121752468796	1.047393333936326	-5.029247208041732	0	0	-7.819252355102862	0.7998790342948726	0.3636974511749406	33.05143349712051	-38.65721714124736	28.36926701655514	99.80739655446479	1.54053487803215	0	0	0	-11.61291678504222	0	88.49077287780923	1.54053487803215	0	0
1.8	-0.1603491995404471	2.893620305902275	-90.36581731361652	0	0.9399999998679526	0	45.00716625207227	-10.12464272947079	0	60.01118246014947	1.047392721944679	-5.028954892665258	0	0	45.00716625207227	-10.12464272947079	0	60.01118246014947	1.047392721944679	-5.028954892665258	0	0	-6.165350520640636	0.6467634584493911	0.3900074832679651	34.3110487886317	-38.36169118653088	29.91619416875396	102.2022134713349	1.536728849833528	0	0	0	-11.61951562990846	0	88.49450110473549	1.536728849833528	0	0
